<svg width="48" height="48" viewBox="0 0 48 48" fill="none" xmlns="http://www.w3.org/2000/svg">
<path fill-rule="evenodd" clip-rule="evenodd" d="M8.40078 24.0004C8.40078 15.3847 15.3851 8.40039 24.0008 8.40039C32.6164 8.40039 39.6008 15.3847 39.6008 24.0004V28.4687C39.7259 28.4245 39.8605 28.4004 40.0008 28.4004C40.6635 28.4004 41.2008 28.9377 41.2008 29.6004V32.8004C41.2008 33.4631 40.6635 34.0004 40.0008 34.0004C39.8557 34.0004 39.7167 33.9747 39.588 33.9275C39.5792 34.2483 39.5644 34.5435 39.5393 34.8143C39.4747 35.5108 39.3354 36.153 38.991 36.7544C38.7619 37.1545 38.4736 37.5172 38.1353 37.829C37.6226 38.3015 37.0285 38.57 36.3706 38.7694C35.7489 38.9579 34.9768 39.1101 34.0623 39.2904L33.9434 39.3138C33.319 39.4371 32.7519 39.5489 32.28 39.5861C31.7721 39.6262 31.1997 39.5982 30.6512 39.2895C30.3265 39.1068 30.0426 38.8611 29.8142 38.5689C29.4345 38.0832 29.3075 37.5287 29.2525 37.0182C29.2007 36.537 29.2007 35.9434 29.2008 35.2771V26.8991C29.2007 26.3328 29.2007 25.8241 29.2414 25.4064C29.2848 24.9607 29.3843 24.479 29.6777 24.0327C29.9194 23.6651 30.2433 23.3568 30.6266 23.1359C31.0988 22.8638 31.5909 22.8035 32.0352 22.8005C32.4459 22.7977 32.9388 22.8464 33.4764 22.8994L33.5885 22.9105C34.5256 23.0028 35.314 23.0806 35.9529 23.2071C36.3907 23.2938 36.8057 23.4115 37.1948 23.5981C36.9821 16.494 31.1564 10.8004 24.0008 10.8004C16.8452 10.8004 11.0195 16.494 10.8068 23.5981C11.1959 23.4115 11.6109 23.2938 12.0487 23.2071C12.6876 23.0806 13.476 23.0028 14.413 22.9105L14.5252 22.8994C15.0627 22.8464 15.5557 22.7977 15.9663 22.8005C16.4107 22.8035 16.9028 22.8638 17.375 23.1359C17.7583 23.3568 18.0822 23.6651 18.3239 24.0327C18.6173 24.479 18.7168 24.9607 18.7602 25.4064C18.8009 25.8241 18.8008 26.3328 18.8008 26.8991V35.2771C18.8008 35.9434 18.8009 36.537 18.749 37.0182C18.694 37.5287 18.567 38.0832 18.1874 38.5689C17.9589 38.8611 17.6751 39.1068 17.3503 39.2895C16.8019 39.5982 16.2294 39.6262 15.7215 39.5861C15.2497 39.5489 14.6826 39.4371 14.0581 39.3138L13.9393 39.2904C13.0247 39.1101 12.2527 38.9579 11.6309 38.7694C10.9731 38.57 10.3789 38.3015 9.86622 37.829C9.52795 37.5172 9.23969 37.1545 9.01059 36.7544C8.6662 36.153 8.52684 35.5108 8.4623 34.8143C8.43721 34.5435 8.42235 34.2483 8.41355 33.9275C8.28485 33.9747 8.14582 34.0004 8.00078 34.0004C7.33804 34.0004 6.80078 33.4631 6.80078 32.8004V29.6004C6.80078 28.9377 7.33804 28.4004 8.00078 28.4004C8.14104 28.4004 8.27567 28.4245 8.40078 28.4687V24.0004ZM10.8008 32.3097C10.8008 33.3522 10.802 34.0524 10.8521 34.5928C10.9003 35.1134 10.9865 35.3753 11.0933 35.5618C11.2019 35.7515 11.337 35.9207 11.4926 36.0641C11.6397 36.1996 11.857 36.3301 12.3272 36.4726C12.8205 36.6222 13.4739 36.7524 14.4606 36.947C15.1672 37.0863 15.5948 37.1687 15.9101 37.1936C16.0802 37.207 16.1576 37.1973 16.1835 37.192C16.2234 37.1679 16.2615 37.1351 16.2946 37.0933C16.3045 37.0738 16.3381 36.9904 16.3628 36.7612C16.3991 36.4242 16.4008 35.9621 16.4008 35.217V26.9518C16.4008 26.3162 16.3994 25.9262 16.3715 25.639C16.352 25.4385 16.3249 25.3658 16.3176 25.3499C16.2802 25.2934 16.2339 25.2501 16.1848 25.2201C16.1637 25.2144 16.0977 25.2015 15.95 25.2005C15.6814 25.1986 15.3166 25.233 14.7056 25.2933C13.6965 25.3928 13.0255 25.4603 12.515 25.5614C12.0259 25.6583 11.7991 25.7663 11.6466 25.8812C11.4229 26.0497 11.2317 26.2671 11.0876 26.5219C10.9845 26.7043 10.8989 26.967 10.8512 27.4961C10.8019 28.0427 10.8008 28.7522 10.8008 29.8046V32.3097ZM37.2008 29.8046C37.2008 28.7522 37.1996 28.0427 37.1503 27.4961C37.1026 26.967 37.0171 26.7043 36.9139 26.5219C36.7699 26.2672 36.5787 26.0497 36.355 25.8812C36.2025 25.7663 35.9757 25.6583 35.4865 25.5614C34.9761 25.4603 34.3051 25.3928 33.2959 25.2933C32.685 25.233 32.3202 25.1986 32.0516 25.2005C31.9038 25.2015 31.8379 25.2145 31.8168 25.2201C31.7677 25.2501 31.7214 25.2934 31.684 25.3499C31.6766 25.3658 31.6496 25.4385 31.6301 25.639C31.6021 25.9262 31.6008 26.3162 31.6008 26.9518V35.217C31.6008 35.9621 31.6024 36.4242 31.6387 36.7612C31.6634 36.9904 31.6971 37.0738 31.707 37.0933C31.7401 37.1351 31.7781 37.1679 31.818 37.192C31.8439 37.1974 31.9214 37.207 32.0914 37.1936C32.4068 37.1687 32.8344 37.0863 33.541 36.947C34.5276 36.7524 35.181 36.6222 35.6744 36.4726C36.1446 36.3301 36.3618 36.1996 36.5089 36.0641C36.6646 35.9207 36.7996 35.7515 36.9083 35.5618C37.015 35.3753 37.1013 35.1134 37.1495 34.5928C37.1996 34.0524 37.2008 33.3522 37.2008 32.3097V29.8046Z" fill="#181818"/>
</svg>
