<svg width="24" height="24" viewBox="0 0 24 24" fill="none" xmlns="http://www.w3.org/2000/svg">
<path fill-rule="evenodd" clip-rule="evenodd" d="M11.6004 4.60234C7.7344 4.60234 4.60039 7.73635 4.60039 11.6023C4.60039 15.4683 7.7344 18.6023 11.6004 18.6023C15.4664 18.6023 18.6004 15.4683 18.6004 11.6023C18.6004 7.73635 15.4664 4.60234 11.6004 4.60234ZM3.40039 11.6023C3.40039 7.07361 7.07166 3.40234 11.6004 3.40234C16.1291 3.40234 19.8004 7.07361 19.8004 11.6023C19.8004 13.6508 19.0493 15.5237 17.8075 16.9609L20.4247 19.5781C20.659 19.8124 20.659 20.1923 20.4247 20.4266C20.1903 20.6609 19.8104 20.6609 19.5761 20.4266L16.959 17.8094C15.5218 19.0512 13.6488 19.8023 11.6004 19.8023C7.07166 19.8023 3.40039 16.1311 3.40039 11.6023Z" fill="#181818"/>
</svg>
