<svg width="18" height="18" viewBox="0 0 18 18" fill="none" xmlns="http://www.w3.org/2000/svg">
<path d="M9.00078 7.04961C8.75225 7.04961 8.55078 6.84814 8.55078 6.59961V4.79961C8.55078 4.55108 8.75225 4.34961 9.00078 4.34961C9.24931 4.34961 9.45078 4.55108 9.45078 4.79961V6.59961C9.45078 6.84814 9.24931 7.04961 9.00078 7.04961Z" fill="#181818"/>
<path fill-rule="evenodd" clip-rule="evenodd" d="M4.20078 6.14961C5.11205 6.14961 5.85078 6.88834 5.85078 7.79961C5.85078 8.71088 5.11205 9.44961 4.20078 9.44961C3.28951 9.44961 2.55078 8.71088 2.55078 7.79961C2.55078 6.88834 3.28951 6.14961 4.20078 6.14961ZM4.95078 7.79961C4.95078 7.3854 4.615 7.04961 4.20078 7.04961C3.78657 7.04961 3.45078 7.3854 3.45078 7.79961C3.45078 8.21382 3.78657 8.54961 4.20078 8.54961C4.615 8.54961 4.95078 8.21382 4.95078 7.79961Z" fill="#181818"/>
<path fill-rule="evenodd" clip-rule="evenodd" d="M10.6508 8.99961C10.6508 9.91088 9.91205 10.6496 9.00078 10.6496C8.08951 10.6496 7.35078 9.91088 7.35078 8.99961C7.35078 8.08834 8.08951 7.34961 9.00078 7.34961C9.91205 7.34961 10.6508 8.08834 10.6508 8.99961ZM9.00078 9.74961C9.415 9.74961 9.75078 9.41382 9.75078 8.99961C9.75078 8.5854 9.41499 8.24961 9.00078 8.24961C8.58657 8.24961 8.25078 8.5854 8.25078 8.99961C8.25078 9.41382 8.58657 9.74961 9.00078 9.74961Z" fill="#181818"/>
<path fill-rule="evenodd" clip-rule="evenodd" d="M15.4508 10.1996C15.4508 11.1109 14.7121 11.8496 13.8008 11.8496C12.8895 11.8496 12.1508 11.1109 12.1508 10.1996C12.1508 9.28834 12.8895 8.54961 13.8008 8.54961C14.7121 8.54961 15.4508 9.28834 15.4508 10.1996ZM13.8008 10.9496C14.215 10.9496 14.5508 10.6138 14.5508 10.1996C14.5508 9.7854 14.215 9.44961 13.8008 9.44961C13.3866 9.44961 13.0508 9.7854 13.0508 10.1996C13.0508 10.6138 13.3866 10.9496 13.8008 10.9496Z" fill="#181818"/>
<path d="M13.3508 7.79961C13.3508 8.04814 13.5523 8.24961 13.8008 8.24961C14.0493 8.24961 14.2508 8.04814 14.2508 7.79961V4.79961C14.2508 4.55108 14.0493 4.34961 13.8008 4.34961C13.5523 4.34961 13.3508 4.55108 13.3508 4.79961V7.79961Z" fill="#181818"/>
<path d="M4.20078 9.74961C3.95225 9.74961 3.75078 9.95108 3.75078 10.1996L3.75078 13.1996C3.75078 13.4481 3.95225 13.6496 4.20078 13.6496C4.44931 13.6496 4.65078 13.4481 4.65078 13.1996L4.65078 10.1996C4.65078 9.95108 4.44931 9.74961 4.20078 9.74961Z" fill="#181818"/>
<path d="M8.55078 13.1996C8.55078 13.4481 8.75225 13.6496 9.00078 13.6496C9.24931 13.6496 9.45078 13.4481 9.45078 13.1996V11.3996C9.45078 11.1511 9.24931 10.9496 9.00078 10.9496C8.75225 10.9496 8.55078 11.1511 8.55078 11.3996V13.1996Z" fill="#181818"/>
<path d="M13.8008 13.6496C13.5523 13.6496 13.3508 13.4481 13.3508 13.1996V12.5996C13.3508 12.3511 13.5523 12.1496 13.8008 12.1496C14.0493 12.1496 14.2508 12.3511 14.2508 12.5996V13.1996C14.2508 13.4481 14.0493 13.6496 13.8008 13.6496Z" fill="#181818"/>
<path d="M3.75078 4.79961C3.75078 4.55108 3.95225 4.34961 4.20078 4.34961C4.44931 4.34961 4.65078 4.55108 4.65078 4.79961V5.39961C4.65078 5.64814 4.44931 5.84961 4.20078 5.84961C3.95225 5.84961 3.75078 5.64814 3.75078 5.39961V4.79961Z" fill="#181818"/>
</svg>
