<svg width="48" height="48" viewBox="0 0 48 48" fill="none" xmlns="http://www.w3.org/2000/svg">
<path fill-rule="evenodd" clip-rule="evenodd" d="M13.199 14.3998C13.199 10.2024 16.6017 6.7998 20.799 6.7998C24.9964 6.7998 28.399 10.2024 28.399 14.3998C28.399 18.5972 24.9964 21.9998 20.799 21.9998C16.6017 21.9998 13.199 18.5972 13.199 14.3998ZM20.799 9.1998C17.9272 9.1998 15.599 11.5279 15.599 14.3998C15.599 17.2717 17.9272 19.5998 20.799 19.5998C23.6709 19.5998 25.999 17.2717 25.999 14.3998C25.999 11.5279 23.6709 9.1998 20.799 9.1998Z" fill="white"/>
<path fill-rule="evenodd" clip-rule="evenodd" d="M11.1598 26.6627C13.6869 25.2412 17.0974 24.3998 20.799 24.3998C24.5007 24.3998 27.9112 25.2412 30.4383 26.6627C32.9279 28.0631 34.799 30.1855 34.799 32.7998L34.7991 32.9629C34.801 34.8219 34.8032 37.155 32.7568 38.8215C31.7496 39.6416 30.3407 40.2248 28.4371 40.6101C26.5282 40.9965 24.0403 41.1998 20.799 41.1998C17.5578 41.1998 15.0699 40.9965 13.161 40.6101C11.2574 40.2248 9.84845 39.6416 8.8413 38.8215C6.79486 37.155 6.79713 34.8219 6.79894 32.9629L6.79904 32.7998C6.79904 30.1855 8.67022 28.0631 11.1598 26.6627ZM12.3364 28.7545C10.1932 29.96 9.19904 31.4377 9.19904 32.7998C9.19904 34.8923 9.26355 36.0702 10.3568 36.9605C10.9496 37.4433 11.9407 37.9145 13.6371 38.2578C15.3282 38.6001 17.6403 38.7998 20.799 38.7998C23.9578 38.7998 26.2699 38.6001 27.961 38.2578C29.6574 37.9145 30.6485 37.4433 31.2413 36.9605C32.3345 36.0702 32.399 34.8923 32.399 32.7998C32.399 31.4377 31.4048 29.96 29.2617 28.7545C27.1562 27.5702 24.1666 26.7998 20.799 26.7998C17.4315 26.7998 14.4419 27.5702 12.3364 28.7545Z" fill="white"/>
<path d="M36.399 17.5998C36.399 16.9371 35.8618 16.3998 35.199 16.3998C34.5363 16.3998 33.999 16.9371 33.999 17.5998V19.5998H31.999C31.3363 19.5998 30.799 20.1371 30.799 20.7998C30.799 21.4626 31.3363 21.9998 31.999 21.9998H33.999V23.9998C33.999 24.6625 34.5363 25.1998 35.199 25.1998C35.8618 25.1998 36.399 24.6625 36.399 23.9998V21.9998H38.399C39.0618 21.9998 39.599 21.4626 39.599 20.7998C39.599 20.1371 39.0618 19.5998 38.399 19.5998H36.399V17.5998Z" fill="white"/>
</svg>
