<svg width="22" height="22" viewBox="0 0 22 22" fill="none" xmlns="http://www.w3.org/2000/svg">
<path d="M11.751 5C11.751 4.58579 11.4152 4.25 11.001 4.25C10.5867 4.25 10.251 4.58579 10.251 5V9C10.251 9.41421 10.5867 9.75 11.001 9.75C11.4152 9.75 11.751 9.41421 11.751 9V5Z" fill="#181818" fill-opacity="0.8"/>
<path fill-rule="evenodd" clip-rule="evenodd" d="M3.25102 8C3.25102 3.71979 6.72081 0.25 11.001 0.25C15.2812 0.25 18.751 3.71979 18.751 8V8.7041C18.751 9.40102 18.9573 10.0824 19.3439 10.6622L20.4925 12.3851C21.8256 14.3848 20.8079 17.1028 18.4893 17.7351C17.7336 17.9412 16.9716 18.1155 16.2051 18.2581L16.2033 18.2632C15.4343 20.3151 13.3789 21.75 11.001 21.75C8.62296 21.75 6.56765 20.3151 5.79865 18.2632L5.79676 18.2581C5.03035 18.1155 4.26836 17.9412 3.51274 17.7351C1.19415 17.1028 0.176445 14.3848 1.50954 12.3851L2.65814 10.6622C3.04473 10.0824 3.25102 9.40102 3.25102 8.7041V8ZM7.62447 18.5369C9.86742 18.8049 12.1345 18.805 14.3774 18.537C13.6665 19.5585 12.4299 20.25 11.001 20.25C9.57199 20.25 8.33542 19.5585 7.62447 18.5369ZM11.001 1.75C7.54924 1.75 4.75102 4.54822 4.75102 8V8.7041C4.75102 9.69716 4.45707 10.668 3.90622 11.4943L2.75762 13.2172C1.99244 14.3649 2.57659 15.925 3.90742 16.288C8.55167 17.5546 13.4504 17.5546 18.0946 16.288C19.4254 15.925 20.0096 14.3649 19.2444 13.2172L18.0958 11.4943C17.545 10.668 17.251 9.69716 17.251 8.7041V8C17.251 4.54822 14.4528 1.75 11.001 1.75Z" fill="#181818" fill-opacity="0.8"/>
</svg>
