<svg width="19" height="18" viewBox="0 0 19 18" fill="none" xmlns="http://www.w3.org/2000/svg">
<path fill-rule="evenodd" clip-rule="evenodd" d="M9.19962 2.55078C7.62561 2.55078 6.34962 3.82677 6.34962 5.40078C6.34962 6.97479 7.62561 8.25078 9.19962 8.25078C10.7736 8.25078 12.0496 6.97479 12.0496 5.40078C12.0496 3.82677 10.7736 2.55078 9.19962 2.55078ZM7.24962 5.40078C7.24962 4.32383 8.12267 3.45078 9.19962 3.45078C10.2766 3.45078 11.1496 4.32383 11.1496 5.40078C11.1496 6.47774 10.2766 7.35078 9.19962 7.35078C8.12267 7.35078 7.24962 6.47774 7.24962 5.40078Z" fill="#407BFF"/>
<path fill-rule="evenodd" clip-rule="evenodd" d="M9.19962 9.15078C7.97602 9.15078 6.84613 9.43323 6.00651 9.91302C5.17962 10.3855 4.54962 11.1069 4.54962 12.0008C4.54962 12.8947 5.17962 13.616 6.00651 14.0885C6.84613 14.5683 7.97602 14.8508 9.19962 14.8508C10.4232 14.8508 11.5531 14.5683 12.3927 14.0885C13.2196 13.616 13.8496 12.8947 13.8496 12.0008C13.8496 11.1069 13.2196 10.3855 12.3927 9.91302C11.5531 9.43323 10.4232 9.15078 9.19962 9.15078ZM5.44962 12.0008C5.44962 11.5692 5.75983 11.0906 6.45304 10.6944C7.13352 10.3056 8.10363 10.0508 9.19962 10.0508C10.2956 10.0508 11.2657 10.3056 11.9462 10.6944C12.6394 11.0906 12.9496 11.5692 12.9496 12.0008C12.9496 12.4323 12.6394 12.911 11.9462 13.3071C11.2657 13.696 10.2956 13.9508 9.19962 13.9508C8.10363 13.9508 7.13352 13.696 6.45304 13.3071C5.75983 12.911 5.44962 12.4323 5.44962 12.0008Z" fill="#407BFF"/>
</svg>
